{"accessors" : [{"bufferView" : 0, "byteOffset" : 0, "componentType" : 5123, "count" : 35448, "type" : "SCALAR", "max" : [27824], "min" : [0]}, {"bufferView" : 1, "byteOffset" : 0, "componentType" : 5126, "count" : 27825, "type" : "VEC3", "max" : [10.003100395202637, 16.811599731445312, 8.6628999710083], "min" : [-10.003100395202637, -30.351999282836914, -8.6628999710083], "name" : "POSITION"}, {"bufferView" : 1, "byteOffset" : 12, "componentType" : 5126, "count" : 27825, "type" : "VEC2", "max" : [5, 5], "min" : [-5, -5], "name" : "TEXCOORD_0"}], "asset" : {"generator" : "Aspose.3D 21.11", "version" : "2.0"}, "buffers" : [{"uri" : "data:application/octet-stream;base64,", "byteLength" : 779864}], "bufferViews" : [{"buffer" : 0, "byteOffset" : 0, "byteLength" : 70896, "target" : 34963}, {"buffer" : 0, "byteOffset" : 70900, "byteLength" : 708960, "byteStride" : 20, "target" : 34962}], "meshes" : [{"primitives" : [{"attributes" : {"POSITION" : 1, "TEXCOORD_0" : 2}, "indices" : 0, "mode" : 4}], "name" : ""}], "nodes" : [{"mesh" : 0, "name" : "Sphere01"}], "scene" : 0, "scenes" : [{"nodes" : [0]}]}