{"extensionsUsed" : ["KHR_materials_pbrSpecularGlossiness"], "accessors" : [{"bufferView" : 0, "byteOffset" : 0, "componentType" : 5123, "count" : 66, "type" : "SCALAR", "max" : [65], "min" : [0]}, {"bufferView" : 1, "byteOffset" : 0, "componentType" : 5126, "count" : 66, "type" : "VEC3", "max" : [0.04536899924278259, 0.8374485969543457, 3.3393940925598145], "min" : [-0.04536899924278259, 0.4441337585449219, 2.389616012573242], "name" : "POSITION"}, {"bufferView" : 1, "byteOffset" : 12, "componentType" : 5126, "count" : 66, "type" : "VEC3", "max" : [1.0000044107437134, 1.0000044107437134, 1.0000044107437134], "min" : [-1.0000044107437134, -1.0000044107437134, -0.4592829644680023], "name" : "NORMAL"}, {"bufferView" : 1, "byteOffset" : 24, "componentType" : 5126, "count" : 66, "type" : "VEC2", "max" : [0.9980080723762512, -0.0017999628325924277], "min" : [0.06999720633029938, -0.9017813205718994], "name" : "TEXCOORD_0"}], "asset" : {"generator" : "Aspose.3D 21.11", "version" : "2.0"}, "buffers" : [{"uri" : "data:application/octet-stream;base64,", "byteLength" : 2252}], "bufferViews" : [{"buffer" : 0, "byteOffset" : 0, "byteLength" : 132, "target" : 34963}, {"buffer" : 0, "byteOffset" : 136, "byteLength" : 2112, "byteStride" : 32, "target" : 34962}], "materials" : [{"name" : "", "pbrMetallicRoughness" : {"baseColorFactor" : [0.00856800563633442, 0.00856800563633442, 0.4620693325996399, 1], "metallicFactor" : 0, "roughnessFactor" : 0}, "emissiveFactor" : [0, 0, 0], "alphaMode" : "OPAQUE", "doubleSided" : false}], "meshes" : [{"primitives" : [{"attributes" : {"POSITION" : 1, "NORMAL" : 2, "TEXCOORD_0" : 3}, "indices" : 0, "material" : 0, "mode" : 4}], "name" : ""}], "nodes" : [{"matrix" : [1, 0, 0, 0, 0, -4.440892098500626E-16, 1, 0, 0, -1, -4.440892098500626E-16, 0, 0, -0.3787698745727539, -3.168987035751349, 1], "mesh" : 0, "name" : "Arrow1"}], "scene" : 0, "scenes" : [{"nodes" : [0]}]}
