{"accessors" : [{"bufferView" : 0, "byteOffset" : 0, "componentType" : 5123, "count" : 35442, "type" : "SCALAR", "max" : [35441], "min" : [0]}, {"bufferView" : 1, "byteOffset" : 0, "componentType" : 5126, "count" : 35442, "type" : "VEC3", "max" : [8.662917137145996, 10.00306224822998, 16.069744110107422], "min" : [-8.66291332244873, -10.003063201904297, -31.093849182128906], "name" : "POSITION"}, {"bufferView" : 1, "byteOffset" : 12, "componentType" : 5126, "count" : 35442, "type" : "VEC3", "max" : [1.0000044107437134, 0.9999166131019592, 1.0000044107437134], "min" : [-1.0000044107437134, -1.0000014305114746, -1.0000044107437134], "name" : "NORMAL"}, {"bufferView" : 1, "byteOffset" : 24, "componentType" : 5126, "count" : 35442, "type" : "VEC2", "max" : [5, 5.000000476837158], "min" : [-5, -5], "name" : "TEXCOORD_0"}], "asset" : {"generator" : "Aspose.3D 21.11", "version" : "2.0"}, "buffers" : [{"uri" : "data:application/octet-stream;base64,", "byteLength" : 1205036}], "bufferViews" : [{"buffer" : 0, "byteOffset" : 0, "byteLength" : 70884, "target" : 34963}, {"buffer" : 0, "byteOffset" : 70888, "byteLength" : 1134144, "byteStride" : 32, "target" : 34962}], "materials" : [{"name" : "", "pbrMetallicRoughness" : {"baseColorFactor" : [0, 0, 0, 1], "metallicFactor" : 0, "roughnessFactor" : 0}, "emissiveFactor" : [0, 0, 0], "alphaMode" : "OPAQUE", "doubleSided" : false}], "meshes" : [{"primitives" : [{"attributes" : {"POSITION" : 1, "NORMAL" : 2, "TEXCOORD_0" : 3}, "indices" : 0, "material" : 0, "mode" : 4}], "name" : "Sphere01"}], "nodes" : [{"matrix" : [0.8660253882408142, 0.5000000000000001, 0, 0, -0.5000000000000001, 0.8660253882408142, 0, 0, 0, 0, 1, 0, 0, -3.242785240331614E-08, 0.7418627738952637, 1], "mesh" : 0, "name" : "Sphere01"}], "scene" : 0, "scenes" : [{"nodes" : [0]}]}